<?xml version="1.0" encoding="UTF-8"?>
<svg id="Capa_2" data-name="Capa 2" xmlns="http://www.w3.org/2000/svg" viewBox="0 0 250 250">
  <defs>
    <style>
      .cls-1 {
        fill: #927940;
      }
    </style>
  </defs>
  <path class="cls-1" d="m162.91,220.21c-12.85,0-24.87-2.78-35.72-8.26l-1.55-.78-1.55.79c-10.75,5.48-22.97,8.25-36.32,8.25-30.93,0-50.41-15.72-61.3-28.9-13.45-16.28-21.48-38.43-21.48-59.24,0-25.85,7.85-49.17,22.1-65.65,14.9-17.23,35.8-26.34,60.45-26.34,12.56,0,24.35,2.75,35.04,8.18l1.53.78,1.54-.76c11.04-5.44,23.5-8.2,37.04-8.2,22.78,0,38.8,9.1,48.22,16.73,4.39,3.55,7.78,7.09,10.3,10.19-10.37-7.07-27.86-16.63-51.71-16.63-10.17,0-19.53,1.71-27.82,5.07l-4.87,1.98,3.78,3.65c2.11,2.04,3.92,4.04,5.43,5.89-3.03-2.07-6.65-4.34-10.88-6.53l-1.76-.91-1.67,1.07c-18.11,11.63-26.16,30.49-29.72,44.26l-.45,1.75,1.2,1.36c5.22,5.94,17.58,6.76,30.15,6.76,3.27,0,6.62-.06,9.86-.12,3.21-.06,6.24-.11,9.16-.11,16.84,0,17.9,2.36,17.96,2.76-.02,35.67-9.84,64.1-28.41,82.22l-3.75,3.66,4.86,1.96c6.66,2.69,13.67,4.06,20.82,4.06,34.8,0,59.77-23.59,62.13-58.7.31-4.68.37-10.95-3.19-14.75-4.35-4.65-21.15-7.99-39.08-8.4-.66,0-2.11-9.7-1.14-9.94,6.24-1.11,29.96-2.9,44.86-2.9s17.69,2.39,18.04,2.78c-.03,63.5-31.48,102.95-82.08,102.95l-.02.02ZM94.35,50.37c-50.22,0-69.47,41.12-70.69,76.34-.86,24.88,7.35,48.17,22.53,63.89,11.57,11.98,26.5,18.58,42.04,18.58,7.3,0,14.28-1.02,20.74-3.03l5.75-1.79-4.48-4.02c-18.58-16.7-30.12-42.85-30.12-68.26,0-30.9,11.3-58.01,31-74.38l5.68-4.72-7.27-1.28c-4.98-.88-10.09-1.32-15.19-1.32h.01Zm26.55,80.87c-7.12,0-13.86,1.93-20.05,5.73l-1.83,1.12.21,2.13c2.18,21.82,11.72,41.6,26.19,54.25l2.26,1.98,2.25-1.99c11.98-10.55,19.23-26.18,20.43-44.01.2-3.02-1.18-6.21-4-9.22-5.68-6.08-15.68-10-25.47-10h.01Z"/>
</svg>